<?xml version="1.0" standalone="no"?>
<!DOCTYPE svg PUBLIC "-//W3C//DTD SVG 20010904//EN"
 "http://www.w3.org/TR/2001/REC-SVG-20010904/DTD/svg10.dtd">
<svg version="1.0" xmlns="http://www.w3.org/2000/svg"
 width="300.000000pt" height="300.000000pt" viewBox="0 0 300.000000 300.000000"
 preserveAspectRatio="xMidYMid meet">

<g transform="translate(0.000000,300.000000) scale(0.100000,-0.100000)"
fill="#000000" stroke="none">
<path d="M1943 2565 l-52 -70 -1 -312 0 -313 -99 0 -98 0 -11 53 c-15 74 -48
157 -76 192 -13 17 -26 28 -28 25 -2 -3 -15 -30 -30 -61 -26 -55 -26 -58 -8
-74 23 -21 63 -112 55 -125 -4 -6 -90 -10 -214 -10 -163 0 -211 3 -227 14 -18
13 -19 30 -22 251 l-3 237 -34 -39 c-23 -26 -34 -48 -35 -70 0 -27 -5 -34 -27
-39 -99 -22 -174 -73 -219 -149 -14 -25 -24 -55 -22 -67 3 -26 73 -77 143
-103 l45 -18 44 36 43 36 7 -56 c8 -73 32 -122 65 -135 30 -11 1507 -6 1532 5
13 7 59 86 59 104 0 3 -75 2 -166 -2 l-166 -7 -52 36 c-29 20 -59 47 -66 61
-12 23 -11 28 11 51 13 14 37 33 53 41 44 23 142 20 201 -6 26 -11 49 -21 51
-21 8 0 -20 58 -43 89 -49 64 -156 90 -230 54 -53 -25 -150 -119 -163 -157
-12 -37 -3 -69 31 -117 l20 -29 -105 0 -106 0 -2 383 -3 382 -52 -70z m-883
-515 c-4 -29 -10 -36 -32 -38 -30 -4 -94 26 -121 56 -18 19 -17 20 45 50 35
16 72 37 83 45 19 15 20 14 25 -31 3 -26 3 -63 0 -82z"/>
<path d="M1296 1548 c-14 -23 -24 -43 -23 -44 1 0 32 -18 69 -38 l67 -37 25
38 c14 21 26 41 26 44 0 7 -122 79 -134 79 -2 0 -16 -19 -30 -42z"/>
<path d="M1501 1562 c-11 -16 -21 -34 -23 -40 -2 -6 27 -29 64 -51 l67 -39 25
39 c14 21 26 43 26 49 0 10 -111 70 -129 70 -5 0 -19 -13 -30 -28z"/>
<path d="M2261 1516 l-44 -44 17 -72 c12 -56 16 -127 16 -311 0 -131 -4 -240
-9 -243 -4 -3 -38 -3 -73 1 l-65 6 -6 84 c-2 46 -8 87 -11 90 -10 10 -77 -60
-72 -73 30 -79 11 -114 -64 -114 -80 0 -80 0 -73 98 l6 87 -37 -34 c-31 -31
-36 -41 -36 -82 0 -68 -9 -72 -145 -64 -63 4 -117 11 -120 14 -2 4 0 33 4 65
4 32 6 69 3 83 -5 24 -5 24 -36 -13 -23 -28 -32 -51 -36 -88 l-5 -51 -50 -7
c-62 -9 -200 -1 -227 13 -10 6 -23 21 -28 35 -12 31 -30 321 -30 489 l0 130
-35 -35 -34 -35 -5 -170 c-6 -211 -25 -322 -63 -379 l-28 -41 -6 93 c-6 73
-13 103 -34 145 -56 106 -184 247 -224 247 -25 0 -51 -36 -51 -70 0 -32 43
-121 70 -145 19 -17 21 -17 39 -1 19 17 21 16 66 -41 72 -91 88 -128 89 -206
1 -62 -2 -71 -24 -89 -41 -33 -140 -80 -230 -108 l-85 -28 50 -7 c71 -12 218
9 274 38 55 28 88 73 138 190 20 48 40 87 43 87 3 0 14 -33 24 -72 23 -90 40
-124 69 -140 29 -16 246 -15 287 2 23 10 40 10 82 -1 74 -18 175 -16 222 4 37
16 42 16 105 -3 59 -19 84 -20 244 -16 98 3 183 8 188 11 5 4 9 124 9 281 0
255 1 278 20 314 25 49 25 58 -1 86 -14 15 -24 42 -28 79 l-6 56 -44 -45z"/>
<path d="M2592 1511 l-32 -40 2 -363 3 -363 33 53 32 53 -2 350 -3 351 -33
-41z"/>
<path d="M289 1013 c-50 -51 -69 -82 -69 -108 0 -14 10 -11 57 15 l57 32 38
-43 c20 -24 38 -47 38 -50 0 -4 -37 -12 -82 -19 -100 -14 -142 -31 -159 -61
-17 -33 -14 -120 9 -224 12 -49 26 -127 32 -172 12 -79 14 -83 38 -83 l25 0
-6 93 c-3 50 -15 143 -28 204 -12 62 -20 116 -17 119 16 15 95 24 213 23 l130
-1 12 28 c19 45 15 61 -19 83 -18 11 -64 62 -103 113 -87 115 -100 119 -166
51z"/>
</g>
</svg>
