<?xml version="1.0" standalone="no"?>
<!DOCTYPE svg PUBLIC "-//W3C//DTD SVG 20010904//EN"
 "http://www.w3.org/TR/2001/REC-SVG-20010904/DTD/svg10.dtd">
<svg version="1.0" xmlns="http://www.w3.org/2000/svg"
 width="326.000000pt" height="300.000000pt" viewBox="0 0 326.000000 300.000000"
 preserveAspectRatio="xMidYMid meet">

<g transform="translate(0.000000,300.000000) scale(0.100000,-0.100000)"
fill="#000000" stroke="none">
<path d="M1252 2617 c-12 -13 -20 -26 -17 -29 3 -2 11 -33 18 -68 12 -60 13
-62 30 -46 21 21 24 123 4 150 -12 16 -14 16 -35 -7z"/>
<path d="M2127 2533 l-57 -68 0 -500 c0 -307 4 -495 9 -490 5 6 32 41 60 80
l51 70 0 487 c0 269 -1 488 -3 488 -1 0 -28 -30 -60 -67z"/>
<path d="M1446 2481 c-17 -6 -19 -16 -17 -68 3 -71 -13 -92 -57 -77 -25 9 -44
35 -56 76 -4 14 -10 16 -28 9 -19 -7 -24 -18 -29 -67 -5 -43 -13 -63 -29 -76
-42 -34 -77 -14 -88 49 -7 41 -8 42 -32 30 -22 -11 -25 -18 -22 -57 6 -73 34
-109 85 -110 36 0 63 14 109 57 l36 35 52 -13 52 -13 28 31 c41 46 59 122 44
181 -7 23 -16 26 -48 13z"/>
<path d="M1651 2210 c-49 -76 -61 -101 -57 -125 3 -16 15 -121 27 -232 26
-234 27 -233 -55 -233 -62 0 -132 30 -146 62 -5 13 -21 120 -35 238 -14 118
-28 230 -31 248 l-5 33 -51 -67 c-59 -78 -58 -65 -28 -309 17 -142 17 -151 1
-175 -10 -13 -33 -28 -52 -33 -35 -9 -165 -4 -176 6 -3 4 -20 106 -37 229
l-31 222 -48 -64 c-28 -38 -47 -74 -47 -90 0 -24 -7 -28 -72 -49 -89 -29 -127
-64 -157 -146 -40 -105 -39 -119 5 -149 53 -34 141 -56 176 -44 16 6 41 31 60
60 25 38 34 46 36 32 2 -11 12 -49 23 -86 18 -62 22 -67 57 -80 20 -7 75 -13
122 -13 105 0 130 13 167 90 15 30 30 55 33 54 3 0 19 -21 35 -47 41 -64 84
-84 200 -90 84 -4 96 -3 124 17 47 34 91 104 91 145 0 39 -59 664 -64 681 -2
6 -31 -33 -65 -85z m-751 -444 c0 -13 3 -37 6 -54 6 -27 3 -31 -29 -41 -55
-19 -117 3 -117 39 0 12 10 21 28 25 16 3 44 17 63 30 43 30 49 31 49 1z"/>
<path d="M1113 1168 c-55 -62 -163 -260 -163 -300 0 -16 -11 -18 -109 -18
l-108 0 -49 53 c-27 29 -73 81 -102 115 -34 40 -61 62 -74 62 -32 0 -148 -120
-148 -153 0 -15 3 -27 8 -27 4 0 32 14 62 31 l55 30 47 -53 46 -53 -88 -12
c-118 -16 -163 -29 -185 -53 -31 -34 -30 -110 4 -260 16 -74 33 -157 36 -185
10 -77 14 -85 41 -85 23 0 24 2 24 78 0 65 -17 165 -56 344 -6 24 -3 28 32 38
26 7 125 10 288 8 l249 -3 13 -65 c19 -90 41 -146 76 -186 31 -35 94 -61 122
-51 35 14 74 258 46 292 -11 13 6 15 154 15 130 0 174 3 196 15 17 9 30 19 30
23 0 4 4 13 9 20 6 11 16 8 46 -12 47 -32 105 -49 170 -50 28 0 247 0 488 2
l437 2 0 58 0 57 -79 38 c-43 21 -118 70 -167 109 -109 87 -172 118 -239 118
-64 0 -106 -25 -144 -87 -16 -26 -28 -49 -26 -51 2 -3 25 3 51 12 109 37 222
5 314 -89 l44 -45 -281 0 -281 0 -11 44 c-22 88 -113 196 -166 196 -46 0 -75
-31 -121 -128 -25 -53 -51 -100 -58 -104 -6 -4 -98 -8 -205 -8 l-194 0 21 23
c20 21 22 34 22 139 0 166 -24 214 -77 156z m18 -149 c4 -13 7 -47 8 -76 l1
-52 -57 -21 c-31 -11 -65 -20 -75 -18 -17 3 -16 8 13 68 36 77 76 133 92 127
6 -2 14 -14 18 -28z m643 -58 c10 -9 28 -35 38 -59 16 -36 17 -46 7 -59 -16
-19 -68 -13 -133 15 -65 29 -68 47 -17 94 44 42 65 44 105 9z m-698 -252 c36
-22 51 -43 65 -91 10 -35 -4 -78 -25 -78 -36 0 -108 93 -131 168 -6 20 -3 22
26 22 17 0 47 -9 65 -21z"/>
<path d="M2972 985 c-28 -58 -28 -69 4 -89 33 -22 84 -103 84 -133 0 -70 -112
-199 -198 -227 -68 -23 -153 -22 -225 3 l-58 20 21 -29 c11 -15 34 -40 51 -55
116 -97 239 -84 359 36 121 121 143 291 57 439 -22 39 -57 80 -67 80 -3 0 -16
-20 -28 -45z"/>
</g>
</svg>
