<?xml version="1.0" standalone="no"?>
<!DOCTYPE svg PUBLIC "-//W3C//DTD SVG 20010904//EN"
 "http://www.w3.org/TR/2001/REC-SVG-20010904/DTD/svg10.dtd">
<svg version="1.0" xmlns="http://www.w3.org/2000/svg"
 width="300.000000pt" height="300.000000pt" viewBox="0 0 300.000000 300.000000"
 preserveAspectRatio="xMidYMid meet">

<g transform="translate(0.000000,300.000000) scale(0.100000,-0.100000)"
fill="#000000" stroke="none">
<path d="M1122 2657 c-12 -13 -20 -26 -17 -29 3 -2 11 -33 18 -68 12 -60 13
-62 30 -46 21 21 24 123 4 150 -12 16 -14 16 -35 -7z"/>
<path d="M1997 2573 l-57 -68 0 -500 c0 -307 4 -495 9 -490 5 6 32 41 60 80
l51 70 0 487 c0 269 -1 488 -3 488 -1 0 -28 -30 -60 -67z"/>
<path d="M1316 2521 c-17 -6 -19 -16 -17 -68 3 -71 -13 -92 -57 -77 -25 9 -44
35 -56 76 -4 14 -10 16 -28 9 -19 -7 -24 -18 -29 -67 -5 -43 -13 -63 -29 -76
-42 -34 -77 -14 -88 49 -7 41 -8 42 -32 30 -22 -11 -25 -18 -22 -57 6 -73 34
-109 85 -110 36 0 63 14 109 57 l36 35 52 -13 52 -13 28 31 c41 46 59 122 44
181 -7 23 -16 26 -48 13z"/>
<path d="M1521 2250 c-49 -76 -61 -101 -57 -125 3 -16 15 -121 27 -232 26
-234 27 -233 -55 -233 -62 0 -132 30 -146 62 -5 13 -21 120 -35 238 -14 118
-28 230 -31 248 l-5 33 -51 -67 c-59 -78 -58 -65 -28 -309 17 -142 17 -151 1
-175 -10 -13 -33 -28 -52 -33 -35 -9 -165 -4 -176 6 -3 4 -20 106 -37 229
l-31 222 -48 -64 c-28 -38 -47 -74 -47 -90 0 -24 -7 -28 -72 -49 -89 -29 -127
-64 -157 -146 -40 -105 -39 -119 5 -149 53 -34 141 -56 176 -44 16 6 41 31 60
60 25 38 34 46 36 32 2 -11 12 -49 23 -86 18 -62 22 -67 57 -80 20 -7 75 -13
122 -13 105 0 130 13 167 90 15 30 30 55 33 54 3 0 19 -21 35 -47 41 -64 84
-84 200 -90 84 -4 96 -3 124 17 47 34 91 104 91 145 0 39 -59 664 -64 681 -2
6 -31 -33 -65 -85z m-751 -444 c0 -13 3 -37 6 -54 6 -27 3 -31 -29 -41 -55
-19 -117 3 -117 39 0 12 10 21 28 25 16 3 44 17 63 30 43 30 49 31 49 1z"/>
<path d="M463 1342 c-22 -33 -33 -60 -33 -85 0 -34 -2 -37 -42 -48 -65 -17
-112 -44 -154 -89 -43 -45 -93 -134 -94 -165 0 -41 94 -118 178 -146 33 -11
36 -10 77 31 l43 42 7 -71 c9 -94 39 -152 85 -168 46 -16 284 -16 330 0 19 7
44 26 56 44 l21 31 29 -19 c48 -32 112 -58 167 -66 28 -5 311 -6 627 -3 l575
5 3 67 3 67 -90 44 c-102 51 -146 80 -251 166 -109 90 -187 126 -271 126 -60
0 -71 -3 -106 -31 -32 -26 -103 -125 -103 -144 0 -4 33 4 72 18 95 32 162 27
249 -16 62 -30 179 -124 179 -143 0 -5 -142 -9 -345 -9 l-345 0 0 28 c0 68
-102 227 -166 257 -31 14 -43 15 -75 6 -47 -14 -81 -61 -134 -184 -28 -65 -44
-91 -62 -98 -13 -5 -98 -9 -188 -9 -158 0 -164 1 -179 22 -14 19 -16 65 -16
305 0 156 -3 283 -7 283 -5 0 -23 -22 -40 -48z m-29 -239 c8 -59 -2 -139 -20
-154 -25 -21 -164 60 -164 96 0 5 21 18 48 27 26 10 63 31 82 47 19 17 38 30
41 31 4 0 9 -21 13 -47z m735 -178 c45 -39 73 -89 69 -127 l-3 -33 -55 1 c-58
1 -167 44 -176 69 -12 30 76 115 118 115 9 0 30 -11 47 -25z"/>
<path d="M2649 935 l-29 -64 54 -51 c99 -93 110 -153 46 -254 -81 -128 -175
-187 -310 -194 -71 -3 -98 0 -162 21 -91 29 -92 22 -6 -60 112 -105 206 -124
330 -66 83 39 184 136 222 214 56 117 57 258 2 382 -23 54 -89 137 -108 137
-5 0 -22 -29 -39 -65z"/>
</g>
</svg>
