<?xml version="1.0" standalone="no"?>
<!DOCTYPE svg PUBLIC "-//W3C//DTD SVG 20010904//EN"
 "http://www.w3.org/TR/2001/REC-SVG-20010904/DTD/svg10.dtd">
<svg version="1.0" xmlns="http://www.w3.org/2000/svg"
 width="300.000000pt" height="300.000000pt" viewBox="0 0 300.000000 300.000000"
 preserveAspectRatio="xMidYMid meet">

<g transform="translate(0.000000,300.000000) scale(0.100000,-0.100000)"
fill="#000000" stroke="none">
<path d="M607 2852 c-15 -16 -15 -25 -5 -70 7 -29 17 -51 23 -49 13 4 19 102
7 122 -7 14 -10 14 -25 -3z"/>
<path d="M1272 2780 l-42 -49 2 -372 3 -372 43 56 42 56 -2 366 -3 365 -43
-50z"/>
<path d="M753 2743 c-8 -3 -13 -24 -13 -54 0 -34 -5 -51 -14 -55 -21 -8 -56
14 -67 42 -15 41 -43 27 -50 -25 -5 -39 -28 -71 -50 -71 -16 0 -39 33 -39 56
0 26 -7 29 -29 15 -10 -6 -12 -21 -8 -50 7 -55 22 -71 65 -71 28 0 45 8 72 35
34 33 37 34 74 23 37 -12 39 -11 67 20 25 27 29 41 29 87 0 55 -5 61 -37 48z"/>
<path d="M911 2543 l-44 -68 14 -135 c7 -74 14 -157 14 -185 l0 -50 -42 -3
c-59 -4 -109 21 -122 61 -5 18 -17 97 -26 177 -23 205 -22 202 -69 139 l-38
-51 17 -144 c9 -80 15 -151 12 -158 -9 -23 -74 -39 -132 -31 l-53 6 -10 72
c-6 40 -17 114 -23 165 -7 50 -15 92 -18 92 -13 -1 -71 -88 -71 -107 0 -15
-13 -23 -54 -36 -75 -24 -93 -42 -122 -121 -23 -64 -23 -70 -8 -87 18 -20 95
-49 130 -49 15 0 35 14 55 40 l32 40 21 -62 c24 -71 32 -75 133 -77 80 -1 103
10 134 66 l26 45 21 -35 c27 -46 67 -66 145 -74 77 -7 115 10 153 67 l26 39
-22 233 c-12 128 -25 248 -29 266 l-6 34 -44 -69z m-571 -363 c0 -34 -3 -40
-26 -46 -33 -8 -78 6 -82 26 -2 15 86 70 101 63 4 -3 7 -22 7 -43z"/>
<path d="M2271 2333 c-12 -25 -21 -47 -19 -48 16 -14 105 -65 113 -65 7 0 20
18 30 41 l19 41 -25 18 c-13 11 -40 28 -60 39 l-35 20 -23 -46z"/>
<path d="M2295 2031 c-27 -16 -95 -65 -150 -109 -55 -45 -123 -93 -152 -108
-50 -25 -54 -26 -123 -14 -52 9 -70 16 -66 25 12 31 18 134 9 150 -9 15 -15
11 -44 -29 -27 -39 -33 -54 -30 -91 2 -41 0 -45 -26 -52 -15 -4 -86 -8 -156
-8 l-128 0 -47 50 c-26 28 -59 65 -75 83 -31 36 -61 41 -113 16 -53 -25 -118
-105 -138 -168 -28 -87 -22 -104 54 -148 36 -21 65 -44 65 -51 0 -22 -161 -57
-248 -54 -88 4 -120 21 -150 78 -22 41 -18 115 12 229 11 41 18 76 16 79 -6 5
-45 -83 -70 -154 -20 -58 -30 -158 -21 -207 8 -44 66 -112 120 -141 34 -18 57
-22 131 -22 85 0 95 3 175 42 47 23 101 55 120 71 34 29 35 32 35 98 l0 68
-80 34 c-108 45 -113 51 -79 91 31 37 73 61 108 61 19 0 39 -18 85 -74 33 -40
74 -79 91 -86 41 -17 266 -8 307 12 25 13 33 12 68 -4 36 -16 77 -18 406 -18
l367 0 10 28 c18 47 24 127 12 171 -6 25 -26 57 -48 79 -41 40 -149 102 -178
102 -11 0 -41 -13 -69 -29z m147 -134 c92 -47 108 -73 53 -89 -48 -14 -375
-23 -375 -10 0 31 166 142 212 142 15 0 64 -19 110 -43z"/>
<path d="M2831 1924 l-22 -59 25 -22 c44 -38 76 -93 76 -132 0 -77 -105 -204
-188 -229 -57 -17 -125 -15 -187 7 l-55 20 20 -29 c28 -40 88 -90 126 -106 47
-20 82 -17 139 10 68 32 132 98 169 176 27 57 31 75 31 150 -1 100 -28 182
-79 238 l-32 35 -23 -59z"/>
<path d="M1836 1486 c-9 -14 -23 -37 -31 -51 -8 -13 -15 -28 -15 -34 0 -5 37
-30 82 -55 62 -35 84 -43 90 -34 38 57 59 101 52 107 -5 5 -44 27 -86 50 l-77
42 -15 -25z"/>
<path d="M979 1306 l-21 -36 -44 31 c-48 33 -57 32 -79 -12 -15 -28 -15 -29
17 -49 43 -26 85 -26 93 0 3 11 11 20 17 20 5 0 21 -9 35 -20 37 -29 69 -26
87 9 15 28 14 30 -9 45 -14 9 -36 23 -50 32 -24 16 -25 15 -46 -20z"/>
<path d="M1346 1192 c-54 -35 -202 -267 -231 -364 l-12 -43 -132 -3 -132 -3
-65 63 c-36 34 -90 92 -119 129 -30 36 -70 74 -89 84 l-34 19 -41 -27 c-22
-15 -65 -52 -96 -83 -45 -46 -55 -62 -55 -90 l0 -34 82 41 83 42 58 -63 c63
-69 62 -80 -8 -80 -63 0 -224 -29 -256 -45 -70 -37 -78 -121 -29 -325 18 -74
40 -180 49 -235 l17 -100 37 -3 37 -3 0 64 c0 74 -19 192 -57 355 -17 73 -23
116 -17 122 23 23 134 30 429 28 l309 -3 13 -65 c33 -163 85 -254 167 -291 48
-22 99 -24 114 -7 21 27 42 111 53 217 l12 110 -24 20 c-24 19 -21 19 661 25
377 2 706 8 732 11 46 7 47 7 74 71 15 35 25 66 23 68 -2 1 -58 -1 -124 -5
-226 -14 -246 -13 -299 22 -59 40 -100 91 -91 118 9 28 54 70 95 88 51 21 156
13 220 -19 27 -14 50 -21 50 -16 0 21 -46 102 -72 129 -46 46 -87 63 -148 63
-67 0 -96 -14 -178 -89 -106 -97 -124 -159 -72 -252 l30 -53 -93 0 -94 0 -12
66 c-15 81 -50 177 -86 234 l-27 43 -35 -74 c-26 -56 -32 -78 -24 -89 29 -41
71 -132 71 -155 l0 -25 -315 0 c-173 0 -315 3 -315 6 0 3 12 20 26 37 26 31
26 31 22 177 -6 187 -24 228 -82 192z m3 -199 c6 -21 11 -64 11 -95 0 -54 -2
-59 -29 -73 -48 -24 -144 -46 -155 -35 -22 22 114 240 149 240 8 0 19 -17 24
-37z m-96 -367 c76 -31 129 -124 110 -190 -8 -26 -14 -31 -38 -29 -52 4 -150
123 -162 197 -5 35 -5 36 26 36 17 0 46 -6 64 -14z"/>
</g>
</svg>
