<svg xmlns="http://www.w3.org/2000/svg" version="1.0" width="336.000000pt" height="300.000000pt" viewBox="0 0 336.000000 300.000000" preserveAspectRatio="xMidYMid meet">
  <g transform="translate(0.000000,300.000000) scale(0.100000,-0.100000)" fill="#ffffff" stroke="none">
    <path d="M1282 2697c-12-13-20-26-17-29 3-2 11-33 18-68 12-60 13-62 30-46 21 21 24 123 4 150-12 16-14 16-35-7z"/>
    <path d="M2157 2613l-57-68 0-500c0-307 4-495 9-490 5 6 32 41 60 80l51 70 0 487c0 269-1 488-3 488-1 0-28-30-60-67z"/>
    <path d="M1476 2561c-17-6-19-16-17-68 3-71-13-92-57-77-25 9-44 35-56 76-4 14-10 16-28 9-19-7-24-18-29-67-5-43-13-63-29-76-42-34-77-14-88 49-7 41-8 42-32 30-22-11-25-18-22-57 6-73 34-109 85-110 36 0 63 14 109 57l36 35 52-13 52-13 28 31c41 46 59 122 44 181-7 23-16 26-48 13z"/>
    <path d="M1681 2290c-49-76-61-101-57-125 3-16 15-121 27-232 26-234 27-233-55-233-62 0-132 30-146 62-5 13-21 120-35 238-14 118-28 230-31 248l-5 33-51-67c-59-78-58-65-28-309 17-142 17-151 1-175-10-13-33-28-52-33-35-9-165-4-176 6-3 4-20 106-37 229l-31 222-48-64c-28-38-47-74-47-90 0-24-7-28-72-49-89-29-127-64-157-146-40-105-39-119 5-149 53-34 141-56 176-44 16 6 41 31 60 60 25 38 34 46 36 32 2-11 12-49 23-86 18-62 22-67 57-80 20-7 75-13 122-13 105 0 130 13 167 90 15 30 30 55 33 54 3 0 19-21 35-47 41-64 84-84 200-90 84-4 96-3 124 17 47 34 91 104 91 145 0 39-59 664-64 681-2 6-31-33-65-85zm-751-444c0-13 3-37 6-54 6-27 3-31-29-41-55-19-117 3-117 39 0 12 10 21 28 25 16 3 44 17 63 30 43 30 49 31 49 1z"/>
    <path d="M391 1655l-41-54 0-378c0-340 2-382 18-413 27-56 70-70 217-75 70-2 128-5 131-7 2-2 10-38 18-80 8-42 25-99 37-127 40-94 143-158 189-116 36 33 70 260 44 302-8 12-14 25-14 29 0 4 60 4 133 1 72-3 163-2 201 2 62 7 72 11 96 40l27 32 47-30c70-44 121-52 301-47 88 2 325 4 528 5l367 1 0 60 0 59-97 50c-56 29-135 81-183 121-175 146-303 172-386 78-27-30-67-98-62-104 3-2 31 5 63 16 82 28 138 26 213-10 64-30 176-125 166-141-6-10-430-10-539 0l-69 6-8 38c-22 108-123 227-192 227-34 0-81-57-127-157-37-79-54-104-71-107-39-8-281-14-357-8l-72 5 23 24c22 23 23 33 23 156-1 187-25 235-87 170-54-58-156-241-177-319l-11-40-133 1c-73 1-138 4-145 9-9 5-12 105-12 422 0 231-4 414-9 414-5 0-27-25-50-55zm560-600c4-17 7-54 8-83l1-53-46-20c-62-28-114-36-114-18 0 21 45 114 80 165 36 51 61 55 71 9zm717-80c90-102 49-154-81-105-97 36-106 68-35 124 47 37 70 33 116-19zm-778-263c48-36 71-82 68-137-4-62-22-69-72-24-56 48-117 165-98 184 11 11 75-3 102-23z"/>
    <path d="M2968 1011l-26-59 45-44c48-46 83-105 83-138 0-63-106-197-191-241-65-33-193-38-273-10-33 12-61 19-63 18-9-10 111-120 149-137 60-27 140-26 203 4 71 33 156 114 196 188 33 61 34 66 34 178 0 103-3 121-26 170-25 54-83 130-98 130-4 0-19-27-33-59z"/>
  </g>
</svg>
