<svg xmlns="http://www.w3.org/2000/svg" version="1.0" width="300.000000pt" height="300.000000pt" viewBox="0 0 300.000000 300.000000" preserveAspectRatio="xMidYMid meet">
  <g transform="translate(0.000000,300.000000) scale(0.100000,-0.100000)" fill="#ffffff" stroke="none">
    <path d="M676 2793c-9-21 4-103 15-103 12 0 12 107 0 114-5 3-12-2-15-11z"/>
    <path d="M1183 2728l-33-47 0-335c0-185 3-336 8-336 4 0 19 21 35 46l27 46-2 336-3 337-32-47z"/>
    <path d="M793 2702c-6-4-13-27-15-52-4-57-30-66-56-21-22 40-36 34-43-18-3-23-10-46-17-53-17-17-42-1-49 32-3 17-11 29-17 27-18-6-19-66-1-93 21-33 55-30 90 6 24 25 34 29 61 24 27-5 35-2 48 18 31 48 31 150-1 130z"/>
    <path d="M903 2506l-32-64 14-139c20-192 20-191-11-199-16-4-39 0-60 9-42 20-49 46-65 235-7 78-16 142-20 142-3 0-18-18-32-39l-26-40 11-140c14-168 12-171-72-171l-57 0-18 155c-10 85-19 155-21 155-9 0-54-82-54-98 0-12-16-25-50-39-42-18-54-29-70-67-11-25-21-62-23-82-2-33 3-41 32-61 52-35 87-31 114 14l21 37 14-56c12-49 18-58 44-67 39-14 94-14 119-1 10 6 28 29 40 52l21 41 21-36c24-42 58-57 128-57 41 0 51 4 73 31 14 17 29 42 33 57 7 29-26 473-36 484-4 4-21-21-38-56zm-424-343c2-21-35-34-63-23-36 13-32 32 12 55l37 20 7-20c3-11 6-25 7-32z"/>
    <path d="M1986 2466c-22-38-26-57-26-123 0-43-3-136-7-206l-6-128-52 2c-73 3-87 11-129 68-44 59-63 63-120 25-37-25-86-108-86-146 0-9 23-31 53-49l52-32-30-13c-48-20-148-28-189-14-66 22-81 98-40 212 20 57 6 46-23-19-21-46-27-74-27-135-1-68 2-79 24-103 69-76 210-71 316 10 30 23 34 32 34 70 0 45 0 45-60 75-33 17-60 32-60 35 0 2 12 16 28 30 48 45 59 43 121-24l57-61 109-2c140-3 225 1 243 11 8 5 26 3 41-4 17-9 107-15 267-20 273-8 247-16 259 75 8 62-16 103-87 147l-56 35-38-20c-22-11-73-46-114-78-93-71-123-84-175-75l-40 7 3 64 3 65-29-34c-20-24-27-41-24-62 5-35-15-41-107-37l-63 3 2 218c0 120 3 231 7 248 8 41-1 36-31-15zm632-390c26-14 56-31 67-39 20-15 19-16-8-26-16-6-80-11-144-11l-116 0 19 21c19 21 112 79 127 79 4 0 29-11 55-24z"/>
    <path d="M1998 1700l-28-38 0-191 0-191-59 0c-58 0-59 0-65 33-6 31-39 102-56 121-5 4-16-6-25-24-16-32-16-34 5-72 36-64 29-68-119-68-119 0-131 2-141 19-5 11-10 82-10 158l0 138-25-30c-13-16-24-38-25-47 0-11-14-21-42-30-47-14-105-66-114-104-8-32 15-58 73-80 43-17 44-17 68 6l24 23 6-29c12-55 27-83 48-90 23-7 745 5 876 15l85 6 13 34 14 34-101-7c-108-7-135 0-174 43-19 21-19 22 3 45 30 32 86 41 139 23 30-11 42-11 42-3 0 20-30 56-60 71-58 30-111 14-177-55-37-38-40-57-18-100l16-30-66 0-65 0-1 188c0 103-4 206-7 229l-7 42-27-39zm-538-287c0-64-11-71-64-45-26 12-46 25-46 29 1 9 78 49 98 52 8 0 12-12 12-36z"/>
    <path d="M904 1580c-28-11-81-76-94-116-24-72 46-143 143-144 42 0 42-1 22-39-22-43-92-98-148-117-49-16-137-15-194 2-28 8-31-16-5-38 45-39 151-49 241-22 61 18 125 75 156 139 41 85 26 253-27 302-31 29-69 42-94 33zm78-136c14-31 8-37-42-37-64 0-91 37-49 67 28 19 76 3 91-30z"/>
    <path d="M1608 1072l-17-28 44-22 45-22 16 25c9 14 15 27 13 29-7 5-80 46-82 46-2 0-10-13-19-28z"/>
    <path d="M1732 1080c-17-27-17-27 28-50 48-25 44-25 64 5 16 24 16 25-24 45-49 25-52 25-68 0z"/>
    <path d="M1363 1021c-20-35-23-57-29-250l-7-212-70 3-70 3-61 74c-34 41-67 76-75 79-17 6-101-77-101-100 0-23 5-23 46 3l33 20 30-33c16-18 27-36 25-40-3-5-22-8-42-8-57-1-115-17-129-36-17-23-16-94 1-169 8-33 18-88 22-123 5-51 10-62 25-62 16 0 19 8 19 53 0 28-9 95-19 147-12 61-16 99-10 105 8 8 439 16 654 12 54-1 179 0 210 2 17 1 58-3 93-10 42-9 71-10 90-3 26 9 27 12 30 89 2 44 0 91-3 104l-6 24-25-24c-21-20-24-29-19-60 8-46-10-61-67-57l-43 3 4 65 3 65-25-24c-18-16-27-36-29-65l-3-41-55-3c-30-2-74-1-98 3l-42 6 5 67 6 67-25-30c-16-18-26-42-26-61 0-40-11-44-112-44l-81 0 5 250c2 138 2 250-1 250-3 0-16-18-28-39z"/>
  </g>
</svg>
